<?xml version="1.0" encoding="iso-8859-1"?>
<!-- Uploaded to: SVG Repo, www.svgrepo.com, Generator: SVG Repo Mixer Tools -->
<svg fill="#000000" height="800px" width="800px" version="1.1" id="Layer_1" xmlns="http://www.w3.org/2000/svg" xmlns:xlink="http://www.w3.org/1999/xlink" 
	 viewBox="0 0 512.002 512.002" xml:space="preserve">
<g>
	<g>
		<path d="M384.172,0.666c-3.961-1.505-8.437-0.404-11.249,2.765l-58.187,65.561H197.267L139.079,3.431
			c-2.811-3.168-7.287-4.269-11.249-2.765c-3.96,1.504-6.578,5.298-6.578,9.535v68.991v266.77
			c0,57.109,41.319,104.748,95.632,114.597v41.243c0,5.633,4.566,10.199,10.199,10.199c5.633,0,10.199-4.566,10.199-10.199v-39.379
			c0.146,0.001,0.29,0.005,0.435,0.005h36.566c0.146,0,0.291-0.005,0.436-0.005v39.379c0,5.633,4.566,10.199,10.199,10.199
			s10.199-4.566,10.199-10.199v-41.243c54.313-9.849,95.632-57.487,95.632-114.597V79.192V10.201
			C390.75,5.965,388.132,2.17,384.172,0.666z M141.651,37.057l28.344,31.936h-28.344V37.057z M370.352,345.962
			c0,52.973-43.096,96.067-96.067,96.067h-36.566c-52.973,0-96.067-43.096-96.067-96.067V89.391h228.7V345.962z M370.352,68.993
			h-28.344l28.344-31.936V68.993z"/>
	</g>
</g>
<g>
	<g>
		<path d="M301.806,131.614c-19.082,0.001-35.966,9.54-46.171,24.091c-10.203-14.55-27.089-24.089-46.171-24.089
			c-31.083,0-56.371,25.287-56.371,56.37s25.288,56.371,56.371,56.371c2.292,0,4.548-0.154,6.769-0.421l32.159,32.429
			c1.915,1.932,4.522,3.017,7.242,3.017c0.007,0,0.014,0,0.021,0c2.727-0.006,5.338-1.104,7.251-3.049l31.889-32.429
			c2.299,0.287,4.635,0.452,7.01,0.452c31.083,0,56.371-25.288,56.371-56.371C358.177,156.901,332.889,131.614,301.806,131.614z
			 M209.466,223.957c-19.836,0-35.973-16.137-35.973-35.973c0-19.834,16.137-35.971,35.973-35.971
			c19.834,0,35.971,16.137,35.971,35.971C245.438,207.82,229.3,223.957,209.466,223.957z M255.605,254.667l-17.822-17.972
			c7.073-4.128,13.167-9.747,17.853-16.429c4.656,6.64,10.702,12.231,17.718,16.351L255.605,254.667z M301.806,223.957
			c-19.834,0-35.971-16.137-35.971-35.973c0-19.834,16.137-35.971,35.971-35.971c19.835,0,35.973,16.137,35.973,35.971
			C337.779,207.82,321.642,223.957,301.806,223.957z"/>
	</g>
</g>
<g>
	<g>
		<path d="M209.465,161.626c-14.535,0-26.36,11.825-26.36,26.359s11.825,26.359,26.36,26.359c14.534,0,26.359-11.825,26.359-26.359
			S224,161.626,209.465,161.626z M209.465,193.946c-3.287,0-5.961-2.674-5.961-5.96s2.674-5.96,5.961-5.96s5.96,2.674,5.96,5.96
			S212.752,193.946,209.465,193.946z"/>
	</g>
</g>
<g>
	<g>
		<path d="M301.806,161.626c-14.534,0-26.359,11.825-26.359,26.359c0,14.534,11.825,26.359,26.359,26.359
			c14.534,0,26.359-11.825,26.359-26.359C328.165,173.451,316.34,161.626,301.806,161.626z M301.806,193.945
			c-3.286,0-5.96-2.674-5.96-5.96c0-3.286,2.674-5.96,5.96-5.96c3.286,0,5.96,2.674,5.96,5.96
			C307.767,191.272,305.093,193.945,301.806,193.945z"/>
	</g>
</g>
<g>
	<g>
		<path d="M347.978,262.327c-5.633,0-10.199,4.566-10.199,10.199v4.25c0,5.633,4.566,10.199,10.199,10.199
			c5.633,0,10.199-4.566,10.199-10.199v-4.25C358.177,266.893,353.611,262.327,347.978,262.327z"/>
	</g>
</g>
<g>
	<g>
		<path d="M347.978,297.44c-5.633,0-10.199,4.566-10.199,10.199v47.759c0,5.633,4.566,10.199,10.199,10.199
			c5.633,0,10.199-4.566,10.199-10.199V307.64C358.177,302.007,353.611,297.44,347.978,297.44z"/>
	</g>
</g>
</svg>